<svg version="1.2" xmlns="http://www.w3.org/2000/svg" viewBox="0 0 180 180" width="180" height="180"><style>tspan{white-space:pre}.a{fill:#ae6463}.b{fill:#f0f8f8}.c{font-size: 111px;fill: #ae6463;font-weight: 100;font-family: "Montserrat-Regular", "Montserrat"}</style><path fill-rule="evenodd" class="a" d="m28 0h124c15.5 0 28 12.5 28 28v124c0 15.5-12.5 28-28 28h-124c-15.5 0-28-12.5-28-28v-124c0-15.5 12.5-28 28-28z"/><path fill-rule="evenodd" class="b" d="m42 18h96c13.3 0 24 10.7 24 24v96c0 13.3-10.7 24-24 24h-96c-13.3 0-24-10.7-24-24v-96c0-13.3 10.7-24 24-24z"/><text style="transform:matrix(1,0,0,1,33,48)" ><tspan x="0" y="82.4" class="c">W
</tspan></text></svg>