<svg version="1.2" xmlns="http://www.w3.org/2000/svg" viewBox="0 0 64 64" width="64" height="64"><style>tspan{white-space:pre}.a{fill:#ae6463}.b{fill:#f0f8f8}.c{font-size: 41px;fill: #ae6463;font-weight: 100;font-family: "Montserrat-Regular", "Montserrat"}</style><path fill-rule="evenodd" class="a" d="m12 0h40c6.6 0 12 5.4 12 12v40c0 6.6-5.4 12-12 12h-40c-6.6 0-12-5.4-12-12v-40c0-6.6 5.4-12 12-12z"/><path fill-rule="evenodd" class="b" d="m16 6h32c5.5 0 10 4.5 10 10v32c0 5.5-4.5 10-10 10h-32c-5.5 0-10-4.5-10-10v-32c0-5.5 4.5-10 10-10z"/><text style="transform:matrix(1,0,0,1,11,20)" ><tspan x="0" y="30.4" class="c">W
</tspan></text></svg>